<?xml version="1.0" encoding="utf-8"?>
<!-- Generator: Adobe Illustrator 24.1.0, SVG Export Plug-In . SVG Version: 6.00 Build 0)  -->
<svg version="1.0" id="Capa_1" xmlns="http://www.w3.org/2000/svg" xmlns:xlink="http://www.w3.org/1999/xlink" x="0px" y="0px"
	 viewBox="0 0 619 476" style="enable-background:new 0 0 619 476;" xml:space="preserve">
<style type="text/css">
	.st0{fill:none;}
	.st1{fill:#1D1D1B;}
	.st2{fill:#808080;}
	.st3{fill:#FCEE21;}
</style>
<path class="st0" d="M339.57,260.58h-51.93c-0.49,7.96-0.98,16.06-1.5,24.4h54.93C340.55,276.64,340.05,268.54,339.57,260.58z"/>
<path class="st0" d="M334.95,185.63h-42.69c-0.55,8.84-1.1,17.55-1.65,26.44h45.99C336.05,203.18,335.5,194.47,334.95,185.63z"/>
<rect x="296.3" y="158.8" class="st0" width="34.6" height="15.8"/>
<path class="st0" d="M337.29,223.04h-47.37c-0.52,8.83-1.04,17.55-1.56,26.47h50.51C338.33,240.59,337.81,231.87,337.29,223.04z"/>
<path class="st0" d="M399.87,353.04c-28.66,0.03-57.31,0.01-85.97,0.02h-0.58c-28.66-0.01-57.31,0.01-85.97-0.02
	c-2.52-0.01-3.67,0.58-3.83,3.18c-0.13,2.23-0.65,4.44-1.04,6.86h182.26c-0.38-2.41-0.9-4.63-1.04-6.86
	C403.53,353.62,402.38,353.03,399.87,353.04z"/>
<path class="st0" d="M362.65,325.33h-98.09c-0.41,5.66-0.82,11.21-1.24,16.93h100.58C363.48,336.54,363.07,330.99,362.65,325.33z"/>
<path class="st0" d="M348.15,296.16h-69.07c-0.59,6.06-1.16,12.03-1.76,18.17h72.59C349.31,308.19,348.73,302.22,348.15,296.16z"/>
<path class="st1" d="M313.6,421.35c-105.78,0-191.85-86.06-191.85-191.85S207.82,37.65,313.6,37.65
	c105.79,0,191.85,86.06,191.85,191.85S419.39,421.35,313.6,421.35z M313.6,48.26c-99.94,0-181.24,81.3-181.24,181.24
	c0,99.93,81.3,181.24,181.24,181.24c99.93,0,181.24-81.31,181.24-181.24C494.84,129.57,413.54,48.26,313.6,48.26z"/>
<path class="st2" d="M313.6,35c-107.25,0-194.5,87.25-194.5,194.5c0,107.25,87.25,194.5,194.5,194.5
	c107.25,0,194.5-87.25,194.5-194.5C508.1,122.25,420.85,35,313.6,35z M208.99,374.1h209.23c-29.43,21.35-65.56,33.98-104.62,33.98
	C274.55,408.09,238.41,395.45,208.99,374.1z M330.91,158.8v15.8h-34.6v-15.8H330.91z M298.12,148.15c0-3.46,0-6.76,0-10.22
	c3.69,0,7.27,0,11,0c0,3.42,0,6.72,0,10.22H298.12z M318.11,148.15c0-3.4,0-6.74,0-10.23c3.69,0,7.25,0,10.97,0
	c0,3.42,0,6.75,0,10.23H318.11z M334.95,185.63c0.55,8.84,1.1,17.55,1.66,26.44h-45.99c0.55-8.89,1.1-17.6,1.65-26.44H334.95z
	 M337.29,223.04c0.52,8.83,1.05,17.55,1.57,26.47h-50.51c0.53-8.92,1.05-17.64,1.56-26.47H337.29z M339.57,260.58
	c0.49,7.96,0.98,16.06,1.5,24.4h-10.13c-3.39-6.08-9.89-10.2-17.33-10.2c-7.45,0-13.94,4.12-17.33,10.2h-10.14
	c0.52-8.34,1.02-16.44,1.5-24.4H339.57z M348.15,296.16c0.58,6.06,1.16,12.03,1.75,18.17h-16.45v-18.17H348.15z M293.76,296.16
	v18.17h-16.45c0.6-6.14,1.17-12.11,1.76-18.17H293.76z M362.65,325.33c0.41,5.66,0.83,11.21,1.24,16.93H263.31
	c0.42-5.72,0.83-11.27,1.24-16.93H362.65z M313.31,353.06h0.58c28.66-0.01,57.32,0.01,85.97-0.02c2.52-0.01,3.67,0.58,3.83,3.18
	c0.12,2.02,0.56,4.06,0.92,6.22H222.58c0.37-2.16,0.8-4.2,0.92-6.22c0.17-2.6,1.32-3.19,3.83-3.18
	C256,353.07,284.66,353.05,313.31,353.06z M432.7,362.44h-17.14v-0.86c-0.21-1.18-0.42-2.36-0.64-3.53
	c-1.27-6.81-1.02-6.69-3.45-12.47c-1.08-1.41-1.91-3.31-12.51-3.31h-24.33c-0.42-5.41-0.83-10.71-1.24-16.01
	c-0.18-2.27-0.29-4.55-0.54-6.82c-0.32-2.88-2.04-4.61-4.96-4.83c-2.26-0.17-4.54-0.03-7.09-0.03c-0.26-2.12-0.49-3.99-0.73-5.93
	c-0.66-6.27-1.42-12.51-1.51-14.74c-0.08-2.05-0.22-4.44-1.31-6.02c-1.1-1.57-3.4-2.31-5.51-3.64c-0.38-6.37-0.77-13.29-1.2-20.2
	c-0.97-15.59-2-31.18-2.96-46.76c-0.76-12.27-1.42-24.53-2.23-36.79c-0.09-1.32-0.54-3.2-1.46-3.76c-2.54-1.53-2.13-3.73-2.13-5.96
	c0-3.99,0-7.99,0-11.94c4.98-0.38,7.45-2.4,7.25-5.62c-0.2-3.35-2.68-5.08-7.27-5.09c-1.19,0-2.38,0-3.6,0c0-3.56,0-6.86,0-10.36
	c2.67,0,5.16,0.05,7.65-0.01c3.04-0.08,5.05-1.84,5.1-4.36c0.05-2.59-1.84-4.3-4.97-4.37c-2.57-0.05-5.14-0.01-7.63-0.01
	c-3.17-15.17-10.37-22.35-22.59-22.83c-6.07-0.24-11.89,0.57-16.95,4.26c-6.21,4.52-9.27,10.77-9.58,18.58
	c-2.66,0-5.05-0.02-7.43,0.01c-3.38,0.04-5.4,1.65-5.41,4.25c-0.01,2.69,2.14,4.44,5.57,4.5c2.37,0.03,4.75,0,7.2,0
	c0,3.61,0,6.91,0,10.36c-1.21,0-2.44,0-3.63,0c-4.59,0.01-7.08,1.74-7.27,5.09c-0.2,3.21,2.27,5.23,7.25,5.62c0,3.95,0,7.95,0,11.94
	c0.01,2.23,0.4,4.42-2.13,5.96c-0.92,0.56-1.37,2.44-1.45,3.76c-0.82,12.26-1.48,24.52-2.24,36.79
	c-0.96,15.58-1.98,31.16-2.96,46.76c-0.44,6.91-0.82,13.83-1.19,20.2c-2.12,1.33-4.42,2.06-5.52,3.64
	c-1.09,1.57-1.22,3.97-1.31,6.02c-0.09,2.24-0.83,7.4-1.5,14.74c-0.24,1.94-0.47,3.8-0.73,5.93c-2.55,0-4.83-0.13-7.09,0.03
	c-2.93,0.22-4.65,1.95-4.96,4.83c-0.26,2.27-0.37,4.55-0.55,6.82c-0.41,5.29-0.82,10.6-1.23,16.01h-24.33
	c-13.07-0.09-14.73,9.21-15.96,15.78c-0.23,1.17-0.43,2.35-0.65,3.53v0.86h-17.14c-36.49-32.72-59.49-80.19-59.49-132.94
	c0-98.47,80.11-178.59,178.59-178.59c98.47,0,178.59,80.11,178.59,178.59C492.19,282.25,469.18,329.72,432.7,362.44z"/>
<path class="st3" d="M364.21,139.15c0.42,0,0.84,0.06,1.27,0.18l23.69,6.75c2.45,0.7,3.87,3.25,3.17,5.69
	c-0.7,2.46-3.24,3.88-5.7,3.17l-23.69-6.75c-2.45-0.7-3.87-3.25-3.17-5.69C360.36,140.47,362.2,139.15,364.21,139.15z"/>
<path class="st3" d="M364.99,125.29h59.78c2.55,0,4.61,2.07,4.61,4.61c0,2.55-2.06,4.61-4.61,4.61h-59.78
	c-2.55,0-4.61-2.07-4.61-4.61C360.38,127.35,362.45,125.29,364.99,125.29z"/>
<path class="st3" d="M387.9,104.3c2.01,0,3.85,1.32,4.43,3.35c0.7,2.45-0.72,5-3.17,5.69l-23.69,6.75c-2.46,0.69-5-0.72-5.7-3.17
	c-0.7-2.45,0.72-5,3.17-5.69l23.69-6.75C387.06,104.36,387.48,104.3,387.9,104.3z"/>
<path class="st3" d="M258.06,120.27c-0.42,0-0.84-0.06-1.27-0.18l-23.69-6.75c-2.45-0.7-3.87-3.25-3.17-5.69
	c0.7-2.46,3.24-3.88,5.7-3.17l23.69,6.75c2.45,0.7,3.87,3.25,3.17,5.69C261.91,118.95,260.06,120.27,258.06,120.27z"/>
<path class="st3" d="M257.28,134.14H197.5c-2.55,0-4.61-2.07-4.61-4.61c0-2.55,2.06-4.61,4.61-4.61h59.78
	c2.55,0,4.61,2.07,4.61,4.61C261.88,132.07,259.82,134.14,257.28,134.14z"/>
<path class="st3" d="M234.37,155.12c-2.01,0-3.85-1.32-4.43-3.35c-0.7-2.45,0.72-5,3.17-5.69l23.69-6.75c2.46-0.69,5,0.72,5.7,3.17
	c0.7,2.45-0.72,5-3.17,5.69l-23.69,6.75C235.21,155.06,234.78,155.12,234.37,155.12z"/>
</svg>
