<?xml version="1.0" encoding="utf-8"?>
<!-- Generator: Adobe Illustrator 24.1.0, SVG Export Plug-In . SVG Version: 6.00 Build 0)  -->
<svg version="1.1" id="Capa_1_1_" xmlns="http://www.w3.org/2000/svg" xmlns:xlink="http://www.w3.org/1999/xlink" x="0px" y="0px"
	 width="1200px" height="514px" viewBox="0 0 1200 514" style="enable-background:new 0 0 1200 514;" xml:space="preserve">
<style type="text/css">
	.st0{display:none;}
	.st1{display:inline;fill:none;}
	.st2{display:inline;fill:#1D1D1B;}
	.st3{display:inline;fill:#808080;}
	.st4{display:inline;fill:#FCEE21;}
	.st5{display:inline;}
	.st6{fill:#666666;}
	.st7{fill:none;}
	.st8{fill:none;stroke:#808080;stroke-width:2.8346;stroke-miterlimit:10;}
	.st9{fill:none;stroke:#FCEE21;stroke-miterlimit:10;}
</style>
<g id="iso" class="st0">
	<path class="st1" d="M240.965,243.424h-50.388c-0.473,7.721-0.955,15.583-1.458,23.676h53.304
		C241.92,259.007,241.437,251.145,240.965,243.424z"/>
	<path class="st1" d="M236.481,170.697H195.06c-0.533,8.576-1.066,17.031-1.599,25.656h44.628
		C237.546,187.728,237.014,179.273,236.481,170.697z"/>
	<rect x="198.981" y="144.659" class="st1" width="33.578" height="15.332"/>
	<path class="st1" d="M238.753,207.001h-45.965c-0.503,8.566-1.005,17.03-1.518,25.687h49.01
		C239.768,224.031,239.255,215.566,238.753,207.001z"/>
	<path class="st1" d="M299.476,333.142c-27.808,0.03-55.616,0.01-83.424,0.02h-0.563c-27.808-0.01-55.616,0.01-83.424-0.02
		c-2.443-0.01-3.559,0.563-3.72,3.086c-0.13,2.161-0.633,4.313-1.006,6.656h176.861c-0.372-2.343-0.874-4.494-1.005-6.656
		C303.034,333.705,301.918,333.131,299.476,333.142z"/>
	<path class="st1" d="M263.363,306.259h-95.186c-0.402,5.489-0.794,10.878-1.206,16.427h97.599
		C264.168,317.136,263.766,311.747,263.363,306.259z"/>
	<path class="st1" d="M249.289,277.948h-67.026c-0.574,5.881-1.126,11.672-1.709,17.634h70.434
		C250.415,289.62,249.852,283.829,249.289,277.948z"/>
	<path class="st2" d="M215.771,399.426c-102.648,0-186.16-83.509-186.16-186.16s83.511-186.16,186.16-186.16
		c102.651,0,186.16,83.509,186.16,186.16S318.422,399.426,215.771,399.426z M215.771,37.401
		c-96.973,0-175.865,78.894-175.865,175.865c0,96.971,78.892,175.866,175.865,175.866c96.971,0,175.866-78.895,175.866-175.866
		C391.637,116.295,312.742,37.401,215.771,37.401z"/>
	<path class="st3" d="M215.771,24.532c-104.068,0-188.734,84.665-188.734,188.734C27.038,317.334,111.703,402,215.771,402
		c104.069,0,188.734-84.666,188.734-188.734C404.505,109.197,319.84,24.532,215.771,24.532z M114.257,353.582h203.029
		c-28.553,20.715-63.62,32.976-101.515,32.976C177.877,386.558,142.81,374.297,114.257,353.582z M232.56,144.659v15.332h-33.579
		v-15.332H232.56z M200.741,134.324c0-3.359,0-6.557,0-9.913c3.579,0,7.057,0,10.677,0c0,3.318,0,6.518,0,9.913H200.741z
		 M220.144,134.324c0-3.3,0-6.54,0-9.923c3.579,0,7.037,0,10.647,0c0,3.318,0,6.545,0,9.923H220.144z M236.481,170.697
		c0.533,8.576,1.065,17.031,1.609,25.657h-44.628c0.533-8.626,1.066-17.081,1.599-25.657H236.481z M238.753,207.001
		c0.502,8.566,1.015,17.03,1.528,25.687h-49.01c0.513-8.657,1.015-17.121,1.518-25.687H238.753z M240.965,243.424
		c0.472,7.721,0.955,15.583,1.457,23.676h-9.833c-3.293-5.898-9.593-9.9-16.818-9.9c-7.225,0-13.525,4.002-16.817,9.9h-9.835
		c0.503-8.093,0.985-15.955,1.458-23.676H240.965z M249.289,277.948c0.563,5.881,1.126,11.672,1.699,17.634h-15.964v-17.634H249.289
		z M196.519,277.948v17.634h-15.966c0.583-5.962,1.136-11.753,1.709-17.634H196.519z M263.364,306.259
		c0.402,5.489,0.804,10.877,1.207,16.427h-97.599c0.412-5.549,0.804-10.938,1.206-16.427H263.364z M215.489,333.162h0.563
		c27.808-0.01,55.616,0.01,83.424-0.02c2.443-0.01,3.559,0.563,3.72,3.086c0.119,1.964,0.541,3.936,0.897,6.034H127.448
		c0.356-2.098,0.779-4.071,0.897-6.034c0.161-2.523,1.277-3.097,3.72-3.086C159.873,333.171,187.681,333.152,215.489,333.162z
		 M331.332,342.262h-16.635v-0.836c-0.201-1.147-0.412-2.293-0.623-3.429c-1.237-6.605-0.985-6.494-3.348-12.104
		c-1.046-1.368-1.85-3.208-12.134-3.208h-23.606c-0.412-5.247-0.804-10.395-1.206-15.533c-0.172-2.201-0.282-4.413-0.523-6.615
		c-0.312-2.795-1.981-4.474-4.816-4.685c-2.191-0.161-4.403-0.03-6.876-0.03c-0.251-2.061-0.473-3.871-0.704-5.751
		c-0.644-6.083-1.378-12.134-1.468-14.306c-0.08-1.99-0.211-4.313-1.267-5.841c-1.065-1.528-3.297-2.242-5.348-3.529
		c-0.372-6.183-0.744-12.899-1.167-19.604c-0.945-15.131-1.94-30.251-2.875-45.372c-0.734-11.903-1.377-23.807-2.162-35.7
		c-0.09-1.277-0.523-3.106-1.417-3.649c-2.463-1.488-2.071-3.619-2.071-5.78c0-3.871,0-7.752,0-11.582
		c4.836-0.372,7.229-2.333,7.037-5.449c-0.191-3.247-2.603-4.927-7.057-4.936c-1.151,0-2.313,0-3.489,0c0-3.455,0-6.657,0-10.053
		c2.594,0,5.007,0.05,7.419-0.01c2.946-0.08,4.896-1.79,4.947-4.233c0.05-2.513-1.79-4.172-4.826-4.242
		c-2.493-0.05-4.987-0.01-7.399-0.01c-3.077-14.719-10.064-21.685-21.917-22.158c-5.892-0.231-11.541,0.553-16.448,4.132
		c-6.022,4.384-8.998,10.446-9.299,18.026c-2.584,0-4.896-0.02-7.209,0.01c-3.277,0.04-5.238,1.599-5.248,4.122
		c-0.01,2.614,2.081,4.313,5.409,4.364c2.302,0.03,4.604,0,6.987,0c0,3.499,0,6.704,0,10.053c-1.177,0-2.367,0-3.519,0
		c-4.453,0.01-6.866,1.689-7.058,4.936c-0.191,3.116,2.201,5.077,7.038,5.449c0,3.83,0,7.711,0,11.582
		c0.009,2.161,0.392,4.292-2.071,5.78c-0.895,0.543-1.327,2.372-1.407,3.649c-0.794,11.893-1.438,23.797-2.172,35.7
		c-0.935,15.12-1.92,30.241-2.875,45.372c-0.422,6.705-0.795,13.422-1.156,19.604c-2.061,1.287-4.293,2.001-5.359,3.529
		c-1.056,1.528-1.186,3.851-1.267,5.841c-0.091,2.172-0.804,7.178-1.458,14.306c-0.231,1.88-0.452,3.69-0.704,5.751
		c-2.473,0-4.685-0.131-6.876,0.03c-2.846,0.211-4.514,1.89-4.816,4.685c-0.251,2.201-0.361,4.413-0.532,6.615
		c-0.402,5.138-0.794,10.285-1.196,15.533H132.96c-12.687-0.09-14.296,8.938-15.482,15.312c-0.221,1.136-0.422,2.282-0.633,3.429
		v0.836h-16.634C64.805,310.511,42.48,264.454,42.48,213.266c0-95.553,77.739-173.292,173.292-173.292
		c95.553,0,173.292,77.739,173.292,173.292C389.063,264.454,366.738,310.511,331.332,342.262z"/>
	<path class="st4" d="M264.878,125.598c0.405,0,0.818,0.058,1.228,0.175l22.983,6.547c2.375,0.675,3.754,3.15,3.077,5.523
		c-0.677,2.383-3.145,3.761-5.528,3.077l-22.983-6.547c-2.376-0.675-3.754-3.15-3.077-5.523
		C261.139,126.879,262.93,125.598,264.878,125.598z"/>
	<path class="st4" d="M265.636,112.144h58.005c2.471,0,4.473,2.005,4.473,4.475c0,2.47-2.002,4.475-4.473,4.475h-58.005
		c-2.47,0-4.472-2.005-4.472-4.475C261.163,114.149,263.165,112.144,265.636,112.144z"/>
	<path class="st4" d="M287.866,91.78c1.949,0,3.74,1.281,4.3,3.252c0.677,2.373-0.701,4.849-3.077,5.523l-22.983,6.547
		c-2.383,0.665-4.853-0.699-5.528-3.077c-0.677-2.373,0.701-4.848,3.077-5.523l22.983-6.547
		C287.048,91.838,287.461,91.78,287.866,91.78z"/>
	<path class="st4" d="M161.869,107.277c-0.405,0-0.818-0.058-1.228-0.175l-22.983-6.547c-2.375-0.675-3.754-3.15-3.077-5.523
		c0.677-2.383,3.145-3.761,5.528-3.077l22.983,6.547c2.376,0.675,3.754,3.15,3.077,5.523
		C165.608,105.996,163.817,107.277,161.869,107.277z"/>
	<path class="st4" d="M161.112,120.731h-58.005c-2.471,0-4.473-2.005-4.473-4.475c0-2.47,2.002-4.475,4.473-4.475h58.005
		c2.47,0,4.472,2.005,4.472,4.475C165.584,118.726,163.582,120.731,161.112,120.731z"/>
	<path class="st4" d="M138.881,141.095c-1.949,0-3.74-1.281-4.3-3.252c-0.677-2.373,0.701-4.849,3.077-5.523l22.983-6.547
		c2.383-0.665,4.853,0.699,5.528,3.077c0.677,2.373-0.701,4.848-3.077,5.523l-22.983,6.547
		C139.699,141.037,139.286,141.095,138.881,141.095z"/>
</g>
<g id="letras" class="st0">
	<path class="st3" d="M535.189,301.34H500.93l-68.942-186.991h51.401l51.799,139.787l51.826-139.787h51.371l-68.94,186.991H535.189z
		"/>
	<rect x="660.952" y="114.348" class="st3" width="50.974" height="186.991"/>
	<path class="st3" d="M837.691,301.34h-34.259L734.49,114.348h51.373l51.828,139.787l51.797-139.787h51.401l-68.94,186.991H837.691z
		"/>
	<path class="st3" d="M1132.758,186.236c0.567,3.798,1.049,7.752,1.474,11.783c0.398,4.083,0.625,8.372,0.625,12.946v6.848H988.6
		c0.568,4.316,1.277,8.683,2.103,13.127c0.821,4.445,2.212,8.811,4.171,13.127c3.065,6.589,7.805,12.428,14.22,17.495
		c6.384,5.063,15.297,7.596,26.736,7.596c11.411,0,20.323-2.532,26.737-7.596c6.415-5.068,11.125-10.906,14.22-17.495h54.295
		c-2.214,8.863-5.364,16.616-9.396,23.205c-4.03,6.588-8.485,12.3-13.367,17.105c-4.882,4.833-10.104,8.812-15.667,11.991
		c-5.593,3.18-11.013,5.763-16.293,7.804c-12.829,4.547-26.34,6.846-40.53,6.846c-18.676-0.257-35.25-3.823-49.726-10.671
		c-6.13-3.022-12.177-6.899-18.164-11.603c-5.989-4.677-11.297-10.568-15.896-17.674c-4.597-7.107-8.287-15.607-11.068-25.479
		c-2.782-9.895-4.174-21.448-4.174-34.626c0-13.179,1.392-24.729,4.174-34.624c2.781-9.873,6.47-18.452,11.068-25.66
		c4.599-7.236,9.907-13.257,15.896-18.089c5.987-4.806,12.033-8.734,18.164-11.783c14.476-7.106,31.05-10.904,49.726-11.422
		c15.3,0.518,29.661,3.437,43.029,8.76c5.562,2.275,11.211,5.273,16.915,8.941c5.703,3.669,11.011,8.243,15.894,13.696
		c4.854,5.453,9.196,11.911,12.943,19.407C1128.385,167.657,1131.082,176.341,1132.758,186.236z M1080.106,186.236
		c-1.391-4.056-3.121-8.114-5.222-12.169c-2.071-4.057-4.938-7.727-8.57-11.034c-3.606-3.282-7.92-5.892-12.944-7.803
		c-5.024-1.887-10.871-2.843-17.54-2.843c-6.698,0-12.543,0.957-17.541,2.843c-5.023,1.911-9.339,4.521-12.97,7.803
		c-3.604,3.308-6.527,6.977-8.77,11.034c-2.243,4.055-3.89,8.113-5.024,12.169H1080.106z"/>
	<g class="st5">
		<g>
			<path class="st6" d="M501.141,338.764v5.874h-17.588v11.004h13.858v5.678h-13.858v11.222h17.588v5.896h-25.025v-39.673H501.141z"
				/>
			<path class="st6" d="M510.054,338.764h5.955c0.639,0,1.159,0.156,1.561,0.468c0.406,0.31,0.708,0.713,0.907,1.206l9.329,24.2
				c0.312,0.788,0.609,1.65,0.892,2.591s0.555,1.937,0.808,2.978c0.421-2.101,0.941-3.959,1.566-5.569l9.299-24.2
				c0.164-0.421,0.456-0.805,0.877-1.152c0.421-0.347,0.941-0.523,1.566-0.523h5.955l-16.023,39.673h-6.669L510.054,338.764z"/>
			<path class="st6" d="M584.351,338.764v5.874h-17.588v11.004h13.858v5.678h-13.858v11.222h17.588v5.896h-25.025v-39.673H584.351z"
				/>
			<path class="st6" d="M601.845,338.806c0.223,0.027,0.416,0.082,0.59,0.164c0.173,0.084,0.347,0.203,0.51,0.357
				c0.164,0.156,0.347,0.362,0.55,0.619l20.824,26.531c-0.074-0.639-0.124-1.268-0.154-1.878c-0.025-0.614-0.04-1.184-0.04-1.719
				v-24.116h6.5v39.673h-3.81c-0.59,0-1.07-0.089-1.457-0.272c-0.381-0.183-0.758-0.51-1.125-0.986l-20.739-26.422
				c0.055,0.585,0.094,1.164,0.124,1.744c0.025,0.575,0.04,1.1,0.04,1.576v24.361h-6.505v-39.673h3.869
				C601.355,338.764,601.627,338.779,601.845,338.806z"/>
			<path class="st6" d="M673.016,338.764v6.067h-11.935v33.606h-7.377v-33.606h-11.99v-6.067H673.016z"/>
			<path class="st6" d="M720.044,358.604c0,2.908-0.486,5.599-1.452,8.076c-0.971,2.482-2.334,4.622-4.092,6.436
				c-1.754,1.808-3.864,3.225-6.337,4.241c-2.467,1.011-5.202,1.521-8.2,1.521c-3.002,0-5.742-0.51-8.219-1.521
				c-2.477-1.016-4.598-2.433-6.366-4.241c-1.764-1.813-3.131-3.954-4.097-6.436c-0.971-2.477-1.457-5.168-1.457-8.076
				c0-2.908,0.486-5.603,1.457-8.081c0.966-2.477,2.334-4.623,4.097-6.436c1.769-1.808,3.889-3.223,6.366-4.239
				c2.477-1.016,5.217-1.523,8.219-1.523c2.997,0,5.732,0.513,8.2,1.536c2.472,1.026,4.583,2.438,6.337,4.241
				c1.759,1.803,3.121,3.944,4.092,6.421C719.558,353.001,720.044,355.696,720.044,358.604z M712.473,358.604
				c0-2.18-0.287-4.132-0.867-5.861c-0.575-1.729-1.402-3.196-2.482-4.4c-1.08-1.209-2.393-2.13-3.939-2.775
				c-1.546-0.639-3.285-0.961-5.222-0.961c-1.942,0-3.686,0.322-5.242,0.961c-1.556,0.644-2.879,1.566-3.964,2.775
				c-1.09,1.204-1.927,2.67-2.512,4.4c-0.585,1.729-0.877,3.681-0.877,5.861c0,2.175,0.292,4.127,0.877,5.856
				c0.585,1.729,1.422,3.191,2.512,4.39c1.085,1.199,2.408,2.116,3.964,2.755c1.556,0.644,3.3,0.961,5.242,0.961
				c1.937,0,3.676-0.317,5.222-0.961c1.546-0.639,2.859-1.556,3.939-2.755s1.907-2.661,2.482-4.39
				C712.186,362.732,712.473,360.78,712.473,358.604z"/>
			<path class="st6" d="M753.546,345.981c-0.203,0.406-0.436,0.689-0.699,0.852c-0.268,0.163-0.58,0.248-0.946,0.248
				s-0.778-0.144-1.234-0.426c-0.461-0.282-1.001-0.599-1.62-0.946c-0.624-0.347-1.348-0.664-2.18-0.946s-1.818-0.426-2.953-0.426
				c-1.021,0-1.912,0.124-2.675,0.372c-0.758,0.248-1.397,0.59-1.917,1.031c-0.52,0.436-0.912,0.961-1.164,1.576
				c-0.258,0.614-0.386,1.283-0.386,2.016c0,0.931,0.263,1.709,0.783,2.334c0.52,0.619,1.209,1.149,2.071,1.59
				c0.857,0.436,1.838,0.832,2.933,1.179c1.1,0.347,2.22,0.718,3.364,1.11c1.14,0.396,2.264,0.852,3.359,1.372
				c1.1,0.52,2.076,1.179,2.938,1.977c0.857,0.793,1.546,1.769,2.071,2.923c0.52,1.149,0.783,2.547,0.783,4.196
				c0,1.794-0.307,3.468-0.922,5.034c-0.614,1.566-1.511,2.928-2.69,4.087c-1.179,1.159-2.616,2.076-4.32,2.745
				c-1.699,0.664-3.646,1.001-5.841,1.001c-1.263,0-2.507-0.124-3.731-0.372c-1.229-0.248-2.403-0.599-3.528-1.055
				c-1.125-0.456-2.175-1.006-3.156-1.645c-0.976-0.644-1.853-1.358-2.621-2.14l2.14-3.542c0.203-0.253,0.446-0.471,0.728-0.644
				c0.282-0.173,0.599-0.258,0.946-0.258c0.456,0,0.951,0.188,1.481,0.56c0.53,0.377,1.159,0.793,1.878,1.249
				c0.723,0.456,1.576,0.872,2.552,1.249c0.981,0.377,2.155,0.565,3.528,0.565c2.101,0,3.731-0.5,4.885-1.496
				c1.149-0.996,1.729-2.428,1.729-4.296c0-1.04-0.263-1.893-0.783-2.552c-0.525-0.659-1.214-1.209-2.071-1.66
				c-0.862-0.446-1.838-0.827-2.938-1.14c-1.095-0.307-2.215-0.649-3.344-1.016c-1.135-0.362-2.254-0.803-3.349-1.313
				c-1.1-0.515-2.076-1.179-2.938-2.007c-0.857-0.822-1.546-1.848-2.071-3.087c-0.52-1.234-0.778-2.755-0.778-4.568
				c0-1.442,0.287-2.849,0.862-4.221c0.575-1.372,1.417-2.591,2.522-3.651c1.11-1.06,2.467-1.912,4.078-2.552
				c1.61-0.642,3.448-0.961,5.514-0.961c2.339,0,4.499,0.367,6.476,1.097c1.972,0.733,3.656,1.756,5.049,3.074L753.546,345.981z"/>
			<path class="st6" d="M812.42,369.083c0.401,0,0.748,0.154,1.04,0.466l2.908,3.156c-1.61,1.992-3.587,3.523-5.94,4.583
				c-2.348,1.06-5.172,1.59-8.462,1.59c-2.943,0-5.594-0.505-7.942-1.511c-2.353-1.006-4.36-2.403-6.025-4.196
				c-1.665-1.794-2.938-3.934-3.825-6.421c-0.887-2.487-1.333-5.202-1.333-8.145c0-2.983,0.495-5.712,1.481-8.19
				c0.991-2.482,2.378-4.618,4.172-6.406c1.794-1.794,3.939-3.191,6.436-4.187c2.497-0.998,5.252-1.496,8.269-1.496
				c2.948,0,5.519,0.471,7.724,1.415c2.205,0.941,4.092,2.192,5.668,3.743l-2.472,3.433c-0.144,0.218-0.332,0.411-0.56,0.575
				c-0.233,0.164-0.545,0.248-0.946,0.248c-0.421,0-0.852-0.163-1.293-0.495c-0.436-0.327-0.996-0.684-1.67-1.07
				c-0.679-0.381-1.536-0.738-2.566-1.07c-1.035-0.327-2.348-0.495-3.939-0.495c-1.863,0-3.582,0.327-5.143,0.976
				c-1.566,0.649-2.908,1.576-4.033,2.784c-1.125,1.209-2.002,2.675-2.636,4.405c-0.629,1.729-0.946,3.671-0.946,5.831
				c0,2.23,0.317,4.216,0.946,5.95c0.634,1.739,1.486,3.201,2.566,4.39c1.08,1.189,2.348,2.101,3.815,2.73
				c1.462,0.634,3.032,0.946,4.717,0.946c1.006,0,1.917-0.055,2.73-0.164c0.813-0.109,1.566-0.282,2.249-0.52
				c0.689-0.238,1.338-0.545,1.947-0.922c0.614-0.372,1.224-0.837,1.828-1.382c0.178-0.168,0.372-0.297,0.575-0.401
				C811.959,369.133,812.182,369.083,812.42,369.083z"/>
			<path class="st6" d="M835.988,362.94v15.498h-7.382v-39.673h12.099c2.71,0,5.029,0.28,6.956,0.837
				c1.932,0.56,3.513,1.34,4.746,2.346c1.234,1.006,2.14,2.21,2.715,3.612c0.58,1.397,0.867,2.938,0.867,4.623
				c0,1.333-0.198,2.596-0.59,3.785c-0.396,1.189-0.961,2.269-1.704,3.235c-0.738,0.971-1.655,1.823-2.74,2.552
				c-1.09,0.733-2.329,1.318-3.721,1.759c0.936,0.53,1.739,1.288,2.418,2.274l9.929,14.65h-6.639c-0.639,0-1.184-0.129-1.63-0.382
				c-0.451-0.258-0.827-0.624-1.14-1.1l-8.343-12.703c-0.307-0.476-0.654-0.813-1.026-1.016c-0.377-0.198-0.931-0.297-1.66-0.297
				H835.988z M835.988,357.643h4.608c1.392,0,2.601-0.173,3.637-0.52c1.031-0.352,1.883-0.827,2.552-1.442
				c0.669-0.614,1.164-1.343,1.496-2.18c0.327-0.842,0.49-1.769,0.49-2.775c0-2.012-0.659-3.557-1.987-4.637
				c-1.328-1.075-3.354-1.615-6.079-1.615h-4.717V357.643z"/>
			<path class="st6" d="M895.744,338.764v5.874h-17.588v11.004h13.858v5.678h-13.858v11.222h17.588v5.896h-25.025v-39.673H895.744z"
				/>
			<path class="st6" d="M943.426,378.437h-5.708c-0.639,0-1.164-0.159-1.58-0.481c-0.411-0.317-0.708-0.713-0.887-1.194
				l-2.968-8.091h-16.434l-2.963,8.091c-0.144,0.421-0.431,0.808-0.862,1.154c-0.431,0.347-0.956,0.52-1.576,0.52h-5.737
				l15.587-39.673h7.541L943.426,378.437z M917.747,363.46h12.644l-4.826-13.199c-0.223-0.585-0.466-1.273-0.728-2.071
				c-0.268-0.793-0.525-1.66-0.783-2.591c-0.258,0.931-0.505,1.798-0.753,2.606c-0.248,0.803-0.49,1.506-0.728,2.111L917.747,363.46
				z"/>
			<path class="st6" d="M977.849,338.764v6.067h-11.935v33.606h-7.377v-33.606h-11.99v-6.067H977.849z"/>
			<path class="st6" d="M997.276,378.437h-7.407v-39.673h7.407V378.437z"/>
			<path class="st6" d="M1008.721,338.764h5.955c0.639,0,1.159,0.156,1.561,0.468c0.406,0.31,0.708,0.713,0.907,1.206l9.329,24.2
				c0.312,0.788,0.609,1.65,0.892,2.591c0.282,0.941,0.555,1.937,0.808,2.978c0.421-2.101,0.941-3.959,1.566-5.569l9.3-24.2
				c0.163-0.421,0.456-0.805,0.877-1.152c0.421-0.347,0.941-0.523,1.566-0.523h5.955l-16.023,39.673h-6.669L1008.721,338.764z"/>
			<path class="st6" d="M1094.512,358.604c0,2.908-0.485,5.599-1.452,8.076c-0.971,2.482-2.333,4.622-4.092,6.436
				c-1.754,1.808-3.865,3.225-6.337,4.241c-2.467,1.011-5.202,1.521-8.2,1.521c-3.002,0-5.742-0.51-8.219-1.521
				c-2.477-1.016-4.598-2.433-6.367-4.241c-1.764-1.813-3.131-3.954-4.097-6.436c-0.971-2.477-1.457-5.168-1.457-8.076
				c0-2.908,0.486-5.603,1.457-8.081c0.966-2.477,2.333-4.623,4.097-6.436c1.769-1.808,3.889-3.223,6.367-4.239
				c2.477-1.016,5.217-1.523,8.219-1.523c2.998,0,5.732,0.513,8.2,1.536c2.472,1.026,4.583,2.438,6.337,4.241
				c1.759,1.803,3.121,3.944,4.092,6.421C1094.027,353.001,1094.512,355.696,1094.512,358.604z M1086.942,358.604
				c0-2.18-0.287-4.132-0.867-5.861c-0.575-1.729-1.402-3.196-2.482-4.4c-1.08-1.209-2.393-2.13-3.939-2.775
				c-1.546-0.639-3.285-0.961-5.222-0.961c-1.942,0-3.686,0.322-5.242,0.961c-1.556,0.644-2.879,1.566-3.964,2.775
				c-1.09,1.204-1.927,2.67-2.512,4.4c-0.585,1.729-0.877,3.681-0.877,5.861c0,2.175,0.292,4.127,0.877,5.856
				c0.585,1.729,1.422,3.191,2.512,4.39c1.085,1.199,2.408,2.116,3.964,2.755c1.556,0.644,3.3,0.961,5.242,0.961
				c1.937,0,3.676-0.317,5.222-0.961c1.546-0.639,2.859-1.556,3.939-2.755s1.907-2.661,2.482-4.39
				C1086.654,362.732,1086.942,360.78,1086.942,358.604z"/>
			<path class="st6" d="M1128.014,345.981c-0.203,0.406-0.436,0.689-0.699,0.852c-0.268,0.163-0.58,0.248-0.946,0.248
				c-0.367,0-0.778-0.144-1.234-0.426c-0.461-0.282-1.001-0.599-1.62-0.946c-0.624-0.347-1.348-0.664-2.18-0.946
				c-0.832-0.282-1.818-0.426-2.953-0.426c-1.021,0-1.912,0.124-2.675,0.372c-0.758,0.248-1.397,0.59-1.917,1.031
				c-0.52,0.436-0.912,0.961-1.164,1.576c-0.258,0.614-0.386,1.283-0.386,2.016c0,0.931,0.263,1.709,0.783,2.334
				c0.52,0.619,1.209,1.149,2.071,1.59c0.857,0.436,1.838,0.832,2.933,1.179c1.1,0.347,2.22,0.718,3.364,1.11
				c1.14,0.396,2.264,0.852,3.359,1.372c1.1,0.52,2.076,1.179,2.938,1.977c0.857,0.793,1.546,1.769,2.071,2.923
				c0.52,1.149,0.783,2.547,0.783,4.196c0,1.794-0.307,3.468-0.922,5.034s-1.511,2.928-2.69,4.087
				c-1.179,1.159-2.616,2.076-4.32,2.745c-1.699,0.664-3.646,1.001-5.841,1.001c-1.263,0-2.507-0.124-3.731-0.372
				c-1.229-0.248-2.403-0.599-3.528-1.055s-2.175-1.006-3.156-1.645c-0.976-0.644-1.853-1.358-2.621-2.14l2.14-3.542
				c0.203-0.253,0.446-0.471,0.728-0.644c0.282-0.173,0.599-0.258,0.946-0.258c0.456,0,0.951,0.188,1.481,0.56
				c0.53,0.377,1.159,0.793,1.878,1.249c0.723,0.456,1.575,0.872,2.552,1.249c0.981,0.377,2.155,0.565,3.528,0.565
				c2.101,0,3.731-0.5,4.885-1.496c1.149-0.996,1.729-2.428,1.729-4.296c0-1.04-0.263-1.893-0.783-2.552
				c-0.525-0.659-1.214-1.209-2.071-1.66c-0.862-0.446-1.838-0.827-2.938-1.14c-1.095-0.307-2.215-0.649-3.344-1.016
				c-1.135-0.362-2.254-0.803-3.349-1.313c-1.1-0.515-2.076-1.179-2.938-2.007c-0.857-0.822-1.546-1.848-2.071-3.087
				c-0.52-1.234-0.778-2.755-0.778-4.568c0-1.442,0.287-2.849,0.862-4.221c0.575-1.372,1.417-2.591,2.522-3.651
				c1.11-1.06,2.467-1.912,4.078-2.552c1.61-0.642,3.448-0.961,5.514-0.961c2.339,0,4.499,0.367,6.475,1.097
				c1.972,0.733,3.656,1.756,5.049,3.074L1128.014,345.981z"/>
		</g>
	</g>
</g>
<g id="borde">
	<path class="st7" d="M240.965,243.424h-50.388c-0.473,7.721-0.955,15.583-1.458,23.676h53.304
		C241.92,259.007,241.437,251.145,240.965,243.424z"/>
	<path class="st7" d="M236.481,170.697H195.06c-0.533,8.576-1.066,17.031-1.599,25.656h44.628
		C237.546,187.728,237.014,179.273,236.481,170.697z"/>
	<rect x="198.981" y="144.659" class="st7" width="33.578" height="15.332"/>
	<path class="st7" d="M238.753,207.001h-45.965c-0.503,8.566-1.005,17.03-1.518,25.687h49.01
		C239.768,224.031,239.255,215.566,238.753,207.001z"/>
	<path class="st7" d="M299.476,333.142c-27.808,0.03-55.616,0.01-83.424,0.02h-0.563c-27.808-0.01-55.616,0.01-83.424-0.02
		c-2.443-0.01-3.559,0.563-3.72,3.086c-0.13,2.161-0.633,4.313-1.006,6.656h176.861c-0.372-2.343-0.874-4.494-1.005-6.656
		C303.034,333.705,301.918,333.131,299.476,333.142z"/>
	<path class="st7" d="M263.363,306.259h-95.186c-0.402,5.489-0.794,10.878-1.206,16.427h97.599
		C264.168,317.136,263.766,311.747,263.363,306.259z"/>
	<path class="st7" d="M249.289,277.948h-67.026c-0.574,5.881-1.126,11.672-1.709,17.634h70.434
		C250.415,289.62,249.852,283.829,249.289,277.948z"/>
	<path class="st8" d="M215.771,24.532c-104.068,0-188.734,84.665-188.734,188.734C27.038,317.334,111.703,402,215.771,402
		c104.069,0,188.734-84.666,188.734-188.734C404.505,109.197,319.84,24.532,215.771,24.532z M114.257,353.582h203.029
		c-28.553,20.715-63.62,32.976-101.515,32.976C177.877,386.558,142.81,374.297,114.257,353.582z M232.56,144.659v15.332h-33.579
		v-15.332H232.56z M200.741,134.324c0-3.359,0-6.557,0-9.913c3.579,0,7.057,0,10.677,0c0,3.318,0,6.518,0,9.913H200.741z
		 M220.144,134.324c0-3.3,0-6.54,0-9.923c3.579,0,7.037,0,10.647,0c0,3.318,0,6.545,0,9.923H220.144z M236.481,170.697
		c0.533,8.576,1.065,17.031,1.609,25.657h-44.628c0.533-8.626,1.066-17.081,1.599-25.657H236.481z M238.753,207.001
		c0.502,8.566,1.015,17.03,1.528,25.687h-49.01c0.513-8.657,1.015-17.121,1.518-25.687H238.753z M240.965,243.424
		c0.472,7.721,0.955,15.583,1.457,23.676h-9.833c-3.293-5.898-9.593-9.9-16.818-9.9c-7.225,0-13.525,4.002-16.817,9.9h-9.835
		c0.503-8.093,0.985-15.955,1.458-23.676H240.965z M249.289,277.948c0.563,5.881,1.126,11.672,1.699,17.634h-15.964v-17.634H249.289
		z M196.519,277.948v17.634h-15.966c0.583-5.962,1.136-11.753,1.709-17.634H196.519z M263.364,306.259
		c0.402,5.489,0.804,10.877,1.207,16.427h-97.599c0.412-5.549,0.804-10.938,1.206-16.427H263.364z M215.489,333.162h0.563
		c27.808-0.01,55.616,0.01,83.424-0.02c2.443-0.01,3.559,0.563,3.72,3.086c0.119,1.964,0.541,3.936,0.897,6.034H127.448
		c0.356-2.098,0.779-4.071,0.897-6.034c0.161-2.523,1.277-3.097,3.72-3.086C159.873,333.171,187.681,333.152,215.489,333.162z
		 M331.332,342.262h-16.635v-0.836c-0.201-1.147-0.412-2.293-0.623-3.429c-1.237-6.605-0.985-6.494-3.348-12.104
		c-1.046-1.368-1.85-3.208-12.134-3.208h-23.606c-0.412-5.247-0.804-10.395-1.206-15.533c-0.172-2.201-0.282-4.413-0.523-6.615
		c-0.312-2.795-1.981-4.474-4.816-4.685c-2.191-0.161-4.403-0.03-6.876-0.03c-0.251-2.061-0.473-3.871-0.704-5.751
		c-0.644-6.083-1.378-12.134-1.468-14.306c-0.08-1.99-0.211-4.313-1.267-5.841c-1.065-1.528-3.297-2.242-5.348-3.529
		c-0.372-6.183-0.744-12.899-1.167-19.604c-0.945-15.131-1.94-30.251-2.875-45.372c-0.734-11.903-1.377-23.807-2.162-35.7
		c-0.09-1.277-0.523-3.106-1.417-3.649c-2.463-1.488-2.071-3.619-2.071-5.78c0-3.871,0-7.752,0-11.582
		c4.836-0.372,7.229-2.333,7.037-5.449c-0.191-3.247-2.603-4.927-7.057-4.936c-1.151,0-2.313,0-3.489,0c0-3.455,0-6.657,0-10.053
		c2.594,0,5.007,0.05,7.419-0.01c2.946-0.08,4.896-1.79,4.947-4.233c0.05-2.513-1.79-4.172-4.826-4.242
		c-2.493-0.05-4.987-0.01-7.399-0.01c-3.077-14.719-10.064-21.685-21.917-22.158c-5.892-0.231-11.541,0.553-16.448,4.132
		c-6.022,4.384-8.998,10.446-9.299,18.026c-2.584,0-4.896-0.02-7.209,0.01c-3.277,0.04-5.238,1.599-5.248,4.122
		c-0.01,2.614,2.081,4.313,5.409,4.364c2.302,0.03,4.604,0,6.987,0c0,3.499,0,6.704,0,10.053c-1.177,0-2.367,0-3.519,0
		c-4.453,0.01-6.866,1.689-7.058,4.936c-0.191,3.116,2.201,5.077,7.038,5.449c0,3.83,0,7.711,0,11.582
		c0.009,2.161,0.392,4.292-2.071,5.78c-0.895,0.543-1.327,2.372-1.407,3.649c-0.794,11.893-1.438,23.797-2.172,35.7
		c-0.935,15.12-1.92,30.241-2.875,45.372c-0.422,6.705-0.795,13.422-1.156,19.604c-2.061,1.287-4.293,2.001-5.359,3.529
		c-1.056,1.528-1.186,3.851-1.267,5.841c-0.091,2.172-0.804,7.178-1.458,14.306c-0.231,1.88-0.452,3.69-0.704,5.751
		c-2.473,0-4.685-0.131-6.876,0.03c-2.846,0.211-4.514,1.89-4.816,4.685c-0.251,2.201-0.361,4.413-0.532,6.615
		c-0.402,5.138-0.794,10.285-1.196,15.533H132.96c-12.687-0.09-14.296,8.938-15.482,15.312c-0.221,1.136-0.422,2.282-0.633,3.429
		v0.836h-16.634C64.805,310.511,42.48,264.454,42.48,213.266c0-95.553,77.739-173.292,173.292-173.292
		c95.553,0,173.292,77.739,173.292,173.292C389.063,264.454,366.738,310.511,331.332,342.262z"/>
</g>
<g id="amarillo">
	<path class="st9" d="M264.878,125.598c0.405,0,0.818,0.058,1.228,0.175l22.983,6.547c2.375,0.675,3.754,3.15,3.077,5.523
		c-0.677,2.383-3.145,3.761-5.528,3.077l-22.983-6.547c-2.376-0.675-3.754-3.15-3.077-5.523
		C261.139,126.879,262.93,125.598,264.878,125.598z"/>
	<path class="st9" d="M265.636,112.144h58.005c2.471,0,4.473,2.005,4.473,4.475c0,2.47-2.002,4.475-4.473,4.475h-58.005
		c-2.47,0-4.472-2.005-4.472-4.475C261.163,114.149,263.165,112.144,265.636,112.144z"/>
	<path class="st9" d="M287.866,91.78c1.949,0,3.74,1.281,4.3,3.252c0.677,2.373-0.701,4.849-3.077,5.523l-22.983,6.547
		c-2.383,0.665-4.853-0.699-5.528-3.077c-0.677-2.373,0.701-4.848,3.077-5.523l22.983-6.547
		C287.048,91.838,287.461,91.78,287.866,91.78z"/>
	<path class="st9" d="M161.869,107.277c-0.405,0-0.818-0.058-1.228-0.175l-22.983-6.547c-2.375-0.675-3.754-3.15-3.077-5.523
		c0.677-2.383,3.145-3.761,5.528-3.077l22.983,6.547c2.376,0.675,3.754,3.15,3.077,5.523
		C165.608,105.996,163.817,107.277,161.869,107.277z"/>
	<path class="st9" d="M161.112,120.731h-58.005c-2.471,0-4.473-2.005-4.473-4.475c0-2.47,2.002-4.475,4.473-4.475h58.005
		c2.47,0,4.472,2.005,4.472,4.475C165.584,118.726,163.582,120.731,161.112,120.731z"/>
	<path class="st9" d="M138.881,141.095c-1.949,0-3.74-1.281-4.3-3.252c-0.677-2.373,0.701-4.849,3.077-5.523l22.983-6.547
		c2.383-0.665,4.853,0.699,5.528,3.077c0.677,2.373-0.701,4.848-3.077,5.523l-22.983,6.547
		C139.699,141.037,139.286,141.095,138.881,141.095z"/>
</g>
</svg>
